<?xml version="1.0" encoding="utf-8"?>
<!-- Generator: Adobe Illustrator 27.6.1, SVG Export Plug-In . SVG Version: 6.00 Build 0)  -->
<svg version="1.1" id="Calque_1" xmlns="http://www.w3.org/2000/svg" xmlns:xlink="http://www.w3.org/1999/xlink" x="0px" y="0px"
	 viewBox="0 0 26 26" style="enable-background:new 0 0 26 26;" xml:space="preserve">
<style type="text/css">
	.st0{fill:url(#SVGID_1_);}
</style>
<linearGradient id="SVGID_1_" gradientUnits="userSpaceOnUse" x1="-912.0441" y1="567.4366" x2="-911.3471" y2="568.1336" gradientTransform="matrix(26.0005 0 0 -25.9993 23717.4473 14775.125)">
	<stop  offset="0" style="stop-color:#281252"/>
	<stop  offset="1" style="stop-color:#3F00B5"/>
</linearGradient>
<path class="st0" d="M22.3,6.1l-2.1,2.1c-0.4,0.3-0.6,0.9-0.3,1.3c1.4,3,0.9,6.5-1.5,8.9c-2.3,2.3-5.9,2.9-8.9,1.4
	c-0.4-0.2-1,0-1.3,0.3l-2.2,2.2c-0.5,0.4-0.5,1.2,0,1.6c0.1,0.1,0.1,0.1,0.2,0.2c5.1,3.1,11.7,2.3,15.9-1.9c4.2-4.2,5-10.8,2-15.9
	c-0.3-0.6-1-0.7-1.6-0.4C22.5,5.9,22.4,6,22.3,6.1L22.3,6.1z M3.9,3.8c-4.3,4.2-5.1,10.8-2,15.9c0.3,0.6,1,0.7,1.6,0.4
	c0.1,0,0.2-0.1,0.2-0.2l2.1-2.1c0.4-0.3,0.6-0.9,0.4-1.3c-1.4-3-0.9-6.5,1.5-8.9c2.3-2.3,5.9-2.9,8.9-1.5c0.4,0.2,0.9,0,1.3-0.3
	l2.2-2.2c0.5-0.4,0.5-1.2,0-1.6c-0.1-0.1-0.1-0.1-0.2-0.2C14.6-1.2,8-0.4,3.9,3.8L3.9,3.8z"/>
</svg>
